<!-- icon666.com - MILLIONS vector ICONS FREE --><svg viewBox="0 -20 480.01399 480" xmlns="http://www.w3.org/2000/svg"><path d="m386.289062 120.042969h45.710938l-24 72h24l-56 88v-80h-24zm0 0" fill="#fdbd40"></path><path d="m424 56.042969c-5.582031-.328125-11.179688-.328125-16.761719 0-10.933593-29.667969-39.632812-49.003907-71.238281-48-31.792969-1.035157-60.730469 18.253906-72 48-5.328125-.328125-10.671875-.328125-16 0-12.835938-.359375-25.257812 4.582031-34.339844 13.664062-9.082031 9.078125-14.023437 21.5-13.660156 34.335938 0 26.511719 27.382812 48 56 48h160c28.617188 0 56-21.488281 56-48 .363281-12.835938-4.578125-25.257813-13.660156-34.335938-9.082032-9.082031-21.503906-14.023437-34.339844-13.664062zm0 0" fill="#7d8d9c"></path><path d="m120 176.042969h80l-40 120h40l-80 136v-128h-32zm0 0" fill="#fdbd40"></path><path d="m264 96.042969c-5.324219-.402344-10.675781-.402344-16 0-10.730469-34.757813-43.667969-57.8125-80-56-36.332031-1.8125-69.269531 21.242187-80 56-5.324219-.402344-10.675781-.402344-16 0-34.65625 1.617187-62.386719 29.347656-64 64 0 32.402343 30.335938 56 64 56h192c33.664062 0 64-23.597657 64-56-1.613281-34.652344-29.34375-62.382813-64-64zm0 0" fill="#aabece"></path><path d="m424 48.042969c-.984375 0-2.398438-.054688-4.078125-.109375-2.785156-.097656-5.257813-.175782-7.417969-.175782-13.535156-29.886718-43.710937-48.707031-76.503906-47.7148432-32.929688-.8085938-63.234375 17.9062502-77.257812 47.7148432-1.988282 0-4.238282.078126-6.75.167969-1.601563.0625-3 .117188-4 .117188-7.011719-.015625-13.96875 1.214843-20.542969 3.640625-16.882813-13.347656-37.9375-20.304688-59.449219-19.640625-40.503906 0-70.609375 19.699219-85.375 55.640625-2.097656 0-4.234375.121094-6.257812.207031-1.597657.074219-3.152344.152344-4.367188.152344-39.140625 1.464843-70.535156 32.859375-72 72 0 35.289062 32.304688 64 72 64h27.753906l-19.515625 78.066406c-.59375 2.386719-.058593 4.917969 1.457031 6.859375 1.515626 1.941406 3.84375 3.074219 6.304688 3.074219h24v120c0 3.609375 2.414062 6.773437 5.894531 7.722656.6875.179687 1.394531.277344 2.105469.277344 2.835938 0 5.457031-1.5 6.894531-3.941407l80-136c1.457031-2.476562 1.476563-5.539062.050781-8.03125-1.425781-2.488281-4.074218-4.027343-6.945312-4.027343h-28.902344l21.335938-64h71.566406c39.695312 0 72-28.710938 72-64h24.441406l-15.792968 36.847656c-1.058594 2.472656-.808594 5.3125.671874 7.558594 1.480469 2.242187 3.992188 3.59375 6.679688 3.59375h16v72c-.003906 3.558593 2.347656 6.691406 5.761719 7.6875 3.417969.996093 7.082031-.386719 8.992187-3.390625l56-88c1.566406-2.464844 1.667969-5.585938.261719-8.144532-1.40625-2.5625-4.09375-4.152343-7.015625-4.152343h-12.902344l8.34375-25.023438c29.0625-5.023437 52.558594-28.574219 52.558594-54.976562.339844-14.953125-5.453125-29.394531-16.03125-39.96875-10.574219-10.578125-25.015625-16.367188-39.96875-16.03125zm-271.59375 245.472656c-.8125 2.441406-.402344 5.121094 1.101562 7.207031 1.503907 2.085938 3.921876 3.324219 6.492188 3.320313h26.007812l-58.007812 98.625v-98.625c0-4.417969-3.582031-8-8-8h-21.753906l18-72h59.3125zm111.59375-85.472656h-192c-30.878906 0-56-21.527344-56-48 1.5-30.285157 25.714844-54.496094 56-56 1.425781 0 3.199219-.078125 5.121094-.175781 1.75-.070313 4-.183594 5.992187-.183594 1.109375-.023438 2.21875.042968 3.320313.199218l6.8125 1.371094 2.304687-6.5625c9.726563-31.464844 39.558594-52.320312 72.449219-50.648437 32.890625-1.671875 62.722656 19.183593 72.449219 50.648437l2.304687 6.5625 6.8125-1.371094c3.101563-.246093 6.214844-.246093 9.3125 0 1.914063.097657 3.695313.175782 5.121094.175782 30.285156 1.503906 54.5 25.71875 56 56 0 26.457031-25.121094 47.984375-56 47.984375zm120 44.53125v-52.53125c0-4.417969-3.582031-8-8-8h-11.863281l13.703125-32h32.390625l-9.824219 29.472656c-.8125 2.441406-.402344 5.121094 1.101562 7.207031 1.503907 2.085938 3.921876 3.324219 6.492188 3.320313h9.425781zm32-108.53125h-82.128906c-8.484375-31.96875-36.820313-54.675781-69.871094-56-1.214844 0-2.742188-.078125-4.367188-.152344-2.023437-.085937-4.160156-.191406-6.257812-.207031-3.324219-8.203125-7.757812-15.917969-13.175781-22.917969 2.574219-.460937 5.183593-.703125 7.800781-.722656 1.136719 0 2.769531-.054688 4.585938-.125 3.296874-.199219 6.605468-.199219 9.902343 0l6.695313 1.285156 2.335937-6.398437c10.230469-26.503907 36.085938-43.648438 64.480469-42.761719 28.234375-.996094 53.925781 16.234375 63.71875 42.738281l2.402344 6.328125 6.640625-1.210937c3.53125-.191407 7.074219-.191407 10.605469 0 1.878906.074218 3.527343.128906 4.648437.128906 10.71875-.367188 21.109375 3.726562 28.691406 11.308594 7.582031 7.582031 11.679688 17.972656 11.308594 28.691406-.015625 20.953125-22.894531 40.015625-48.015625 40.015625zm0 0"></path></svg>